<?xml version="1.0" encoding="UTF-8" standalone="no"?>
<!DOCTYPE svg PUBLIC "-//W3C//DTD SVG 1.1//EN"
 "http://www.w3.org/Graphics/SVG/1.1/DTD/svg11.dtd">
<!-- Generated by graphviz version 2.40.1 (20161225.0304)
 -->
<!-- Title: dependencies Pages: 1 -->
<svg width="504pt" height="284pt"
 viewBox="0.00 0.00 504.00 284.00" xmlns="http://www.w3.org/2000/svg" xmlns:xlink="http://www.w3.org/1999/xlink">
<g id="graph0" class="graph" transform="scale(1 1) rotate(0) translate(4 280)">
<title>dependencies</title>
<polygon fill="#ffffff" stroke="transparent" points="-4,4 -4,-280 500,-280 500,4 -4,4"/>
<text text-anchor="start" x="227.0091" y="-42.4" font-family="sans-serif" font-weight="bold" font-size="14.00" fill="#000000">Legend</text>
<polygon fill="#ffffb3" stroke="transparent" points="14,-10 14,-30 34,-30 34,-10 14,-10"/>
<text text-anchor="start" x="37.629" y="-15.4" font-family="sans-serif" font-size="14.00" fill="#000000"> &#160;Declarations</text>
<polygon fill="#8dd3c7" stroke="transparent" points="127,-10 127,-30 147,-30 147,-10 127,-10"/>
<text text-anchor="start" x="150.7251" y="-15.4" font-family="sans-serif" font-size="14.00" fill="#000000"> &#160;Module</text>
<polygon fill="#80b1d3" stroke="transparent" points="213,-10 213,-30 233,-30 233,-10 213,-10"/>
<text text-anchor="start" x="236.7812" y="-15.4" font-family="sans-serif" font-size="14.00" fill="#000000"> &#160;Bootstrap</text>
<polygon fill="#fdb462" stroke="transparent" points="310,-10 310,-30 330,-30 330,-10 310,-10"/>
<text text-anchor="start" x="333.6732" y="-15.4" font-family="sans-serif" font-size="14.00" fill="#000000"> &#160;Providers</text>
<polygon fill="#fb8072" stroke="transparent" points="406,-10 406,-30 426,-30 426,-10 406,-10"/>
<text text-anchor="start" x="429.7258" y="-15.4" font-family="sans-serif" font-size="14.00" fill="#000000"> &#160;Exports</text>
<g id="clust1" class="cluster">
<title>cluster_SharedModule</title>
<polygon fill="none" stroke="#000000" stroke-dasharray="1,5" points="9.5,-70 9.5,-268 486.5,-268 486.5,-70 9.5,-70"/>
</g>
<g id="clust3" class="cluster">
<title>cluster_SharedModule_imports</title>
<polygon fill="none" stroke="#000000" points="17.5,-78 17.5,-130 478.5,-130 478.5,-78 17.5,-78"/>
</g>
<g id="clust4" class="cluster">
<title>cluster_SharedModule_exports</title>
<polygon fill="none" stroke="#000000" points="110.5,-208 110.5,-260 406.5,-260 406.5,-208 110.5,-208"/>
</g>
<!-- HdLayoutModule -->
<g id="node1" class="node">
<title>HdLayoutModule</title>
<polygon fill="#8dd3c7" stroke="#000000" points="470.8146,-122 467.8146,-126 446.8146,-126 443.8146,-122 354.1854,-122 354.1854,-86 470.8146,-86 470.8146,-122"/>
<text text-anchor="middle" x="412.5" y="-99.8" font-family="Times,serif" font-size="14.00" fill="#000000">HdLayoutModule</text>
</g>
<!-- SharedModule -->
<g id="node4" class="node">
<title>SharedModule</title>
<polygon fill="#8dd3c7" stroke="#000000" points="315.9231,-187 312.9231,-191 291.9231,-191 288.9231,-187 217.0769,-187 217.0769,-151 315.9231,-151 315.9231,-187"/>
<text text-anchor="middle" x="266.5" y="-164.8" font-family="Times,serif" font-size="14.00" fill="#000000">SharedModule</text>
</g>
<!-- HdLayoutModule&#45;&gt;SharedModule -->
<g id="edge1" class="edge">
<title>HdLayoutModule&#45;&gt;SharedModule</title>
<path fill="none" stroke="#000000" d="M376.375,-122.1061C376.375,-141.3391 376.375,-169 376.375,-169 376.375,-169 325.9733,-169 325.9733,-169"/>
<polygon fill="#000000" stroke="#000000" points="325.9733,-165.5001 315.9733,-169 325.9732,-172.5001 325.9733,-165.5001"/>
</g>
<!-- FabSpeedDialModule -->
<g id="node2" class="node">
<title>FabSpeedDialModule</title>
<polygon fill="#8dd3c7" stroke="#000000" points="335.8613,-122 332.8613,-126 311.8613,-126 308.8613,-122 197.1387,-122 197.1387,-86 335.8613,-86 335.8613,-122"/>
<text text-anchor="middle" x="266.5" y="-99.8" font-family="Times,serif" font-size="14.00" fill="#000000">FabSpeedDialModule</text>
</g>
<!-- FabSpeedDialModule&#45;&gt;SharedModule -->
<g id="edge2" class="edge">
<title>FabSpeedDialModule&#45;&gt;SharedModule</title>
<path fill="none" stroke="#000000" d="M266.5,-122.1061C266.5,-122.1061 266.5,-140.991 266.5,-140.991"/>
<polygon fill="#000000" stroke="#000000" points="263.0001,-140.9909 266.5,-150.991 270.0001,-140.991 263.0001,-140.9909"/>
</g>
<!-- HdContextMenuModule -->
<g id="node3" class="node">
<title>HdContextMenuModule</title>
<polygon fill="#8dd3c7" stroke="#000000" points="179.1484,-122 176.1484,-126 155.1484,-126 152.1484,-122 25.8516,-122 25.8516,-86 179.1484,-86 179.1484,-122"/>
<text text-anchor="middle" x="102.5" y="-99.8" font-family="Times,serif" font-size="14.00" fill="#000000">HdContextMenuModule</text>
</g>
<!-- HdContextMenuModule&#45;&gt;SharedModule -->
<g id="edge3" class="edge">
<title>HdContextMenuModule&#45;&gt;SharedModule</title>
<path fill="none" stroke="#000000" d="M148.8217,-122.1061C148.8217,-141.3391 148.8217,-169 148.8217,-169 148.8217,-169 207.2757,-169 207.2757,-169"/>
<polygon fill="#000000" stroke="#000000" points="207.2757,-172.5001 217.2757,-169 207.2756,-165.5001 207.2757,-172.5001"/>
</g>
<!-- HdLayoutModule  -->
<g id="node5" class="node">
<title>HdLayoutModule </title>
<polygon fill="#fb8072" stroke="#000000" points="398.3143,-252 278.6857,-252 278.6857,-216 398.3143,-216 398.3143,-252"/>
<text text-anchor="middle" x="338.5" y="-229.8" font-family="Times,serif" font-size="14.00" fill="#000000">HdLayoutModule </text>
</g>
<!-- SharedModule&#45;&gt;HdLayoutModule  -->
<g id="edge4" class="edge">
<title>SharedModule&#45;&gt;HdLayoutModule </title>
<path fill="none" stroke="#000000" stroke-dasharray="5,2" d="M297.152,-187.1061C297.152,-187.1061 297.152,-205.991 297.152,-205.991"/>
<polygon fill="#000000" stroke="#000000" points="293.6521,-205.9909 297.152,-215.991 300.6521,-205.991 293.6521,-205.9909"/>
</g>
<!-- FabSpeedDialModule  -->
<g id="node6" class="node">
<title>FabSpeedDialModule </title>
<polygon fill="#fb8072" stroke="#000000" points="260.8617,-252 118.1383,-252 118.1383,-216 260.8617,-216 260.8617,-252"/>
<text text-anchor="middle" x="189.5" y="-229.8" font-family="Times,serif" font-size="14.00" fill="#000000">FabSpeedDialModule </text>
</g>
<!-- SharedModule&#45;&gt;FabSpeedDialModule  -->
<g id="edge5" class="edge">
<title>SharedModule&#45;&gt;FabSpeedDialModule </title>
<path fill="none" stroke="#000000" stroke-dasharray="5,2" d="M238.9848,-187.1061C238.9848,-187.1061 238.9848,-205.991 238.9848,-205.991"/>
<polygon fill="#000000" stroke="#000000" points="235.4848,-205.9909 238.9848,-215.991 242.4848,-205.991 235.4848,-205.9909"/>
</g>
</g>
</svg>
