<?xml version="1.0" encoding="UTF-8" standalone="no"?>
<!DOCTYPE svg PUBLIC "-//W3C//DTD SVG 1.1//EN"
 "http://www.w3.org/Graphics/SVG/1.1/DTD/svg11.dtd">
<!-- Generated by graphviz version 2.40.1 (20161225.0304)
 -->
<!-- Title: dependencies Pages: 1 -->
<svg width="1053pt" height="284pt"
 viewBox="0.00 0.00 1053.00 284.00" xmlns="http://www.w3.org/2000/svg" xmlns:xlink="http://www.w3.org/1999/xlink">
<g id="graph0" class="graph" transform="scale(1 1) rotate(0) translate(4 280)">
<title>dependencies</title>
<polygon fill="#ffffff" stroke="transparent" points="-4,4 -4,-280 1049,-280 1049,4 -4,4"/>
<text text-anchor="start" x="501.5091" y="-42.4" font-family="sans-serif" font-weight="bold" font-size="14.00" fill="#000000">Legend</text>
<polygon fill="#ffffb3" stroke="transparent" points="288.5,-10 288.5,-30 308.5,-30 308.5,-10 288.5,-10"/>
<text text-anchor="start" x="312.129" y="-15.4" font-family="sans-serif" font-size="14.00" fill="#000000"> &#160;Declarations</text>
<polygon fill="#8dd3c7" stroke="transparent" points="401.5,-10 401.5,-30 421.5,-30 421.5,-10 401.5,-10"/>
<text text-anchor="start" x="425.2251" y="-15.4" font-family="sans-serif" font-size="14.00" fill="#000000"> &#160;Module</text>
<polygon fill="#80b1d3" stroke="transparent" points="487.5,-10 487.5,-30 507.5,-30 507.5,-10 487.5,-10"/>
<text text-anchor="start" x="511.2812" y="-15.4" font-family="sans-serif" font-size="14.00" fill="#000000"> &#160;Bootstrap</text>
<polygon fill="#fdb462" stroke="transparent" points="584.5,-10 584.5,-30 604.5,-30 604.5,-10 584.5,-10"/>
<text text-anchor="start" x="608.1732" y="-15.4" font-family="sans-serif" font-size="14.00" fill="#000000"> &#160;Providers</text>
<polygon fill="#fb8072" stroke="transparent" points="680.5,-10 680.5,-30 700.5,-30 700.5,-10 680.5,-10"/>
<text text-anchor="start" x="704.2258" y="-15.4" font-family="sans-serif" font-size="14.00" fill="#000000"> &#160;Exports</text>
<g id="clust1" class="cluster">
<title>cluster_ExampleModule</title>
<polygon fill="none" stroke="#000000" stroke-dasharray="1,5" points="8,-70 8,-268 1037,-268 1037,-70 8,-70"/>
</g>
<g id="clust2" class="cluster">
<title>cluster_ExampleModule_declarations</title>
<polygon fill="none" stroke="#000000" points="586,-78 586,-130 1029,-130 1029,-78 586,-78"/>
</g>
<g id="clust6" class="cluster">
<title>cluster_ExampleModule_imports</title>
<polygon fill="none" stroke="#000000" points="156,-78 156,-130 578,-130 578,-78 156,-78"/>
</g>
<g id="clust8" class="cluster">
<title>cluster_ExampleModule_bootstrap</title>
<polygon fill="none" stroke="#000000" points="446,-208 446,-260 596,-260 596,-208 446,-208"/>
</g>
<g id="clust9" class="cluster">
<title>cluster_ExampleModule_providers</title>
<polygon fill="none" stroke="#000000" points="16,-78 16,-130 148,-130 148,-78 16,-78"/>
</g>
<!-- DashboardComponent -->
<g id="node1" class="node">
<title>DashboardComponent</title>
<polygon fill="#ffffb3" stroke="#000000" points="1020.9734,-122 879.0266,-122 879.0266,-86 1020.9734,-86 1020.9734,-122"/>
<text text-anchor="middle" x="950" y="-99.8" font-family="Times,serif" font-size="14.00" fill="#000000">DashboardComponent</text>
</g>
<!-- ExampleModule -->
<g id="node4" class="node">
<title>ExampleModule</title>
<polygon fill="#8dd3c7" stroke="#000000" points="575.8132,-187 572.8132,-191 551.8132,-191 548.8132,-187 466.1868,-187 466.1868,-151 575.8132,-151 575.8132,-187"/>
<text text-anchor="middle" x="521" y="-164.8" font-family="Times,serif" font-size="14.00" fill="#000000">ExampleModule</text>
</g>
<!-- DashboardComponent&#45;&gt;ExampleModule -->
<g id="edge1" class="edge">
<title>DashboardComponent&#45;&gt;ExampleModule</title>
<path fill="none" stroke="#000000" d="M950,-122.2921C950,-144.2057 950,-178 950,-178 950,-178 585.7689,-178 585.7689,-178"/>
<polygon fill="#000000" stroke="#000000" points="585.7689,-174.5001 575.7689,-178 585.7689,-181.5001 585.7689,-174.5001"/>
</g>
<!-- ModalComponent -->
<g id="node2" class="node">
<title>ModalComponent</title>
<polygon fill="#ffffb3" stroke="#000000" points="860.8823,-122 743.1177,-122 743.1177,-86 860.8823,-86 860.8823,-122"/>
<text text-anchor="middle" x="802" y="-99.8" font-family="Times,serif" font-size="14.00" fill="#000000">ModalComponent</text>
</g>
<!-- ModalComponent&#45;&gt;ExampleModule -->
<g id="edge2" class="edge">
<title>ModalComponent&#45;&gt;ExampleModule</title>
<path fill="none" stroke="#000000" d="M802,-122.1061C802,-141.3391 802,-169 802,-169 802,-169 585.8467,-169 585.8467,-169"/>
<polygon fill="#000000" stroke="#000000" points="585.8467,-165.5001 575.8467,-169 585.8467,-172.5001 585.8467,-165.5001"/>
</g>
<!-- ExampleComponent -->
<g id="node3" class="node">
<title>ExampleComponent</title>
<polygon fill="#ffffb3" stroke="#000000" points="725.5954,-122 594.4046,-122 594.4046,-86 725.5954,-86 725.5954,-122"/>
<text text-anchor="middle" x="660" y="-99.8" font-family="Times,serif" font-size="14.00" fill="#000000">ExampleComponent</text>
</g>
<!-- ExampleComponent&#45;&gt;ExampleModule -->
<g id="edge3" class="edge">
<title>ExampleComponent&#45;&gt;ExampleModule</title>
<path fill="none" stroke="#000000" d="M660,-122.027C660,-138.3976 660,-160 660,-160 660,-160 585.9365,-160 585.9365,-160"/>
<polygon fill="#000000" stroke="#000000" points="585.9365,-156.5001 575.9365,-160 585.9364,-163.5001 585.9365,-156.5001"/>
</g>
<!-- ExampleComponent  -->
<g id="node8" class="node">
<title>ExampleComponent </title>
<polygon fill="#80b1d3" stroke="#000000" points="588.096,-252 453.904,-252 453.904,-216 588.096,-216 588.096,-252"/>
<text text-anchor="middle" x="521" y="-229.8" font-family="Times,serif" font-size="14.00" fill="#000000">ExampleComponent </text>
</g>
<!-- ExampleModule&#45;&gt;ExampleComponent  -->
<g id="edge7" class="edge">
<title>ExampleModule&#45;&gt;ExampleComponent </title>
<path fill="none" stroke="#000000" stroke-dasharray="1,5" d="M521,-187.1061C521,-187.1061 521,-205.991 521,-205.991"/>
<polygon fill="#000000" stroke="#000000" points="517.5001,-205.9909 521,-215.991 524.5001,-205.991 517.5001,-205.9909"/>
</g>
<!-- SharedModule -->
<g id="node5" class="node">
<title>SharedModule</title>
<polygon fill="#8dd3c7" stroke="#000000" points="570.4231,-122 567.4231,-126 546.4231,-126 543.4231,-122 471.5769,-122 471.5769,-86 570.4231,-86 570.4231,-122"/>
<text text-anchor="middle" x="521" y="-99.8" font-family="Times,serif" font-size="14.00" fill="#000000">SharedModule</text>
</g>
<!-- SharedModule&#45;&gt;ExampleModule -->
<g id="edge4" class="edge">
<title>SharedModule&#45;&gt;ExampleModule</title>
<path fill="none" stroke="#000000" d="M521,-122.1061C521,-122.1061 521,-140.991 521,-140.991"/>
<polygon fill="#000000" stroke="#000000" points="517.5001,-140.9909 521,-150.991 524.5001,-140.991 517.5001,-140.9909"/>
</g>
<!-- HdContextMenuModule -->
<g id="node6" class="node">
<title>HdContextMenuModule</title>
<polygon fill="#8dd3c7" stroke="#000000" points="453.6484,-122 450.6484,-126 429.6484,-126 426.6484,-122 300.3516,-122 300.3516,-86 453.6484,-86 453.6484,-122"/>
<text text-anchor="middle" x="377" y="-99.8" font-family="Times,serif" font-size="14.00" fill="#000000">HdContextMenuModule</text>
</g>
<!-- HdContextMenuModule&#45;&gt;ExampleModule -->
<g id="edge5" class="edge">
<title>HdContextMenuModule&#45;&gt;ExampleModule</title>
<path fill="none" stroke="#000000" d="M376.9392,-122.027C376.9392,-138.3976 376.9392,-160 376.9392,-160 376.9392,-160 456.1258,-160 456.1258,-160"/>
<polygon fill="#000000" stroke="#000000" points="456.1258,-163.5001 466.1258,-160 456.1258,-156.5001 456.1258,-163.5001"/>
</g>
<!-- HdUploadModule -->
<g id="node7" class="node">
<title>HdUploadModule</title>
<polygon fill="#8dd3c7" stroke="#000000" points="281.8683,-122 278.8683,-126 257.8683,-126 254.8683,-122 164.1317,-122 164.1317,-86 281.8683,-86 281.8683,-122"/>
<text text-anchor="middle" x="223" y="-99.8" font-family="Times,serif" font-size="14.00" fill="#000000">HdUploadModule</text>
</g>
<!-- HdUploadModule&#45;&gt;ExampleModule -->
<g id="edge6" class="edge">
<title>HdUploadModule&#45;&gt;ExampleModule</title>
<path fill="none" stroke="#000000" d="M223,-122.1061C223,-141.3391 223,-169 223,-169 223,-169 456.3422,-169 456.3422,-169"/>
<polygon fill="#000000" stroke="#000000" points="456.3422,-172.5001 466.3422,-169 456.3422,-165.5001 456.3422,-172.5001"/>
</g>
<!-- DataService -->
<g id="node9" class="node">
<title>DataService</title>
<ellipse fill="#fdb462" stroke="#000000" cx="82" cy="-104" rx="58.4415" ry="18"/>
<text text-anchor="middle" x="82" y="-99.8" font-family="Times,serif" font-size="14.00" fill="#000000">DataService</text>
</g>
<!-- DataService&#45;&gt;ExampleModule -->
<g id="edge8" class="edge">
<title>DataService&#45;&gt;ExampleModule</title>
<path fill="none" stroke="#000000" d="M82,-122.2921C82,-144.2057 82,-178 82,-178 82,-178 456.288,-178 456.288,-178"/>
<polygon fill="#000000" stroke="#000000" points="456.288,-181.5001 466.288,-178 456.2879,-174.5001 456.288,-181.5001"/>
</g>
</g>
</svg>
