<?xml version="1.0" encoding="UTF-8" standalone="no"?>
<!DOCTYPE svg PUBLIC "-//W3C//DTD SVG 1.1//EN"
 "http://www.w3.org/Graphics/SVG/1.1/DTD/svg11.dtd">
<!-- Generated by graphviz version 2.40.1 (20161225.0304)
 -->
<!-- Title: dependencies Pages: 1 -->
<svg width="504pt" height="284pt"
 viewBox="0.00 0.00 504.00 284.00" xmlns="http://www.w3.org/2000/svg" xmlns:xlink="http://www.w3.org/1999/xlink">
<g id="graph0" class="graph" transform="scale(1 1) rotate(0) translate(4 280)">
<title>dependencies</title>
<polygon fill="#ffffff" stroke="transparent" points="-4,4 -4,-280 500,-280 500,4 -4,4"/>
<text text-anchor="start" x="227.0091" y="-42.4" font-family="sans-serif" font-weight="bold" font-size="14.00" fill="#000000">Legend</text>
<polygon fill="#ffffb3" stroke="transparent" points="14,-10 14,-30 34,-30 34,-10 14,-10"/>
<text text-anchor="start" x="37.629" y="-15.4" font-family="sans-serif" font-size="14.00" fill="#000000"> &#160;Declarations</text>
<polygon fill="#8dd3c7" stroke="transparent" points="127,-10 127,-30 147,-30 147,-10 127,-10"/>
<text text-anchor="start" x="150.7251" y="-15.4" font-family="sans-serif" font-size="14.00" fill="#000000"> &#160;Module</text>
<polygon fill="#80b1d3" stroke="transparent" points="213,-10 213,-30 233,-30 233,-10 213,-10"/>
<text text-anchor="start" x="236.7812" y="-15.4" font-family="sans-serif" font-size="14.00" fill="#000000"> &#160;Bootstrap</text>
<polygon fill="#fdb462" stroke="transparent" points="310,-10 310,-30 330,-30 330,-10 310,-10"/>
<text text-anchor="start" x="333.6732" y="-15.4" font-family="sans-serif" font-size="14.00" fill="#000000"> &#160;Providers</text>
<polygon fill="#fb8072" stroke="transparent" points="406,-10 406,-30 426,-30 426,-10 406,-10"/>
<text text-anchor="start" x="429.7258" y="-15.4" font-family="sans-serif" font-size="14.00" fill="#000000"> &#160;Exports</text>
<g id="clust1" class="cluster">
<title>cluster_HdContextMenuModule</title>
<polygon fill="none" stroke="#000000" stroke-dasharray="1,5" points="52.5,-70 52.5,-268 443.5,-268 443.5,-70 52.5,-70"/>
</g>
<g id="clust2" class="cluster">
<title>cluster_HdContextMenuModule_declarations</title>
<polygon fill="none" stroke="#000000" points="63.5,-78 63.5,-130 432.5,-130 432.5,-78 63.5,-78"/>
</g>
<g id="clust6" class="cluster">
<title>cluster_HdContextMenuModule_exports</title>
<polygon fill="none" stroke="#000000" points="60.5,-208 60.5,-260 435.5,-260 435.5,-208 60.5,-208"/>
</g>
<!-- ContextMenuPanelComponent -->
<g id="node1" class="node">
<title>ContextMenuPanelComponent</title>
<polygon fill="#ffffb3" stroke="#000000" points="424.4269,-122 234.5731,-122 234.5731,-86 424.4269,-86 424.4269,-122"/>
<text text-anchor="middle" x="329.5" y="-99.8" font-family="Times,serif" font-size="14.00" fill="#000000">ContextMenuPanelComponent</text>
</g>
<!-- HdContextMenuModule -->
<g id="node3" class="node">
<title>HdContextMenuModule</title>
<polygon fill="#8dd3c7" stroke="#000000" points="221.1484,-187 218.1484,-191 197.1484,-191 194.1484,-187 67.8516,-187 67.8516,-151 221.1484,-151 221.1484,-187"/>
<text text-anchor="middle" x="144.5" y="-164.8" font-family="Times,serif" font-size="14.00" fill="#000000">HdContextMenuModule</text>
</g>
<!-- ContextMenuPanelComponent&#45;&gt;HdContextMenuModule -->
<g id="edge1" class="edge">
<title>ContextMenuPanelComponent&#45;&gt;HdContextMenuModule</title>
<path fill="none" stroke="#000000" d="M361.1544,-122.0225C361.1544,-139.3734 361.1544,-163 361.1544,-163 361.1544,-163 231.1891,-163 231.1891,-163"/>
<polygon fill="#000000" stroke="#000000" points="231.1892,-159.5001 221.1891,-163 231.1891,-166.5001 231.1892,-159.5001"/>
</g>
<!-- ContextMenuDirective -->
<g id="node2" class="node">
<title>ContextMenuDirective</title>
<polygon fill="#ffffb3" stroke="#000000" points="217.0744,-122 71.9256,-122 71.9256,-86 217.0744,-86 217.0744,-122"/>
<text text-anchor="middle" x="144.5" y="-99.8" font-family="Times,serif" font-size="14.00" fill="#000000">ContextMenuDirective</text>
</g>
<!-- ContextMenuDirective&#45;&gt;HdContextMenuModule -->
<g id="edge2" class="edge">
<title>ContextMenuDirective&#45;&gt;HdContextMenuModule</title>
<path fill="none" stroke="#000000" d="M144.5,-122.1061C144.5,-122.1061 144.5,-140.991 144.5,-140.991"/>
<polygon fill="#000000" stroke="#000000" points="141.0001,-140.9909 144.5,-150.991 148.0001,-140.991 141.0001,-140.9909"/>
</g>
<!-- ContextMenuPanelComponent  -->
<g id="node4" class="node">
<title>ContextMenuPanelComponent </title>
<polygon fill="#fb8072" stroke="#000000" points="427.9264,-252 235.0736,-252 235.0736,-216 427.9264,-216 427.9264,-252"/>
<text text-anchor="middle" x="331.5" y="-229.8" font-family="Times,serif" font-size="14.00" fill="#000000">ContextMenuPanelComponent </text>
</g>
<!-- HdContextMenuModule&#45;&gt;ContextMenuPanelComponent  -->
<g id="edge3" class="edge">
<title>HdContextMenuModule&#45;&gt;ContextMenuPanelComponent </title>
<path fill="none" stroke="#000000" stroke-dasharray="5,2" d="M221.2978,-175C259.6967,-175 298.0956,-175 298.0956,-175 298.0956,-175 298.0956,-205.9775 298.0956,-205.9775"/>
<polygon fill="#000000" stroke="#000000" points="294.5957,-205.9774 298.0956,-215.9775 301.5957,-205.9775 294.5957,-205.9774"/>
</g>
<!-- ContextMenuDirective  -->
<g id="node5" class="node">
<title>ContextMenuDirective </title>
<polygon fill="#fb8072" stroke="#000000" points="216.575,-252 68.425,-252 68.425,-216 216.575,-216 216.575,-252"/>
<text text-anchor="middle" x="142.5" y="-229.8" font-family="Times,serif" font-size="14.00" fill="#000000">ContextMenuDirective </text>
</g>
<!-- HdContextMenuModule&#45;&gt;ContextMenuDirective  -->
<g id="edge4" class="edge">
<title>HdContextMenuModule&#45;&gt;ContextMenuDirective </title>
<path fill="none" stroke="#000000" stroke-dasharray="5,2" d="M142.5,-187.1061C142.5,-187.1061 142.5,-205.991 142.5,-205.991"/>
<polygon fill="#000000" stroke="#000000" points="139.0001,-205.9909 142.5,-215.991 146.0001,-205.991 139.0001,-205.9909"/>
</g>
</g>
</svg>
