<?xml version="1.0" encoding="UTF-8" standalone="no"?>
<!DOCTYPE svg PUBLIC "-//W3C//DTD SVG 1.1//EN"
 "http://www.w3.org/Graphics/SVG/1.1/DTD/svg11.dtd">
<!-- Generated by graphviz version 2.40.1 (20161225.0304)
 -->
<!-- Title: dependencies Pages: 1 -->
<svg width="863pt" height="284pt"
 viewBox="0.00 0.00 863.00 284.00" xmlns="http://www.w3.org/2000/svg" xmlns:xlink="http://www.w3.org/1999/xlink">
<g id="graph0" class="graph" transform="scale(1 1) rotate(0) translate(4 280)">
<title>dependencies</title>
<polygon fill="#ffffff" stroke="transparent" points="-4,4 -4,-280 859,-280 859,4 -4,4"/>
<text text-anchor="start" x="406.5091" y="-42.4" font-family="sans-serif" font-weight="bold" font-size="14.00" fill="#000000">Legend</text>
<polygon fill="#ffffb3" stroke="transparent" points="193.5,-10 193.5,-30 213.5,-30 213.5,-10 193.5,-10"/>
<text text-anchor="start" x="217.129" y="-15.4" font-family="sans-serif" font-size="14.00" fill="#000000"> &#160;Declarations</text>
<polygon fill="#8dd3c7" stroke="transparent" points="306.5,-10 306.5,-30 326.5,-30 326.5,-10 306.5,-10"/>
<text text-anchor="start" x="330.2251" y="-15.4" font-family="sans-serif" font-size="14.00" fill="#000000"> &#160;Module</text>
<polygon fill="#80b1d3" stroke="transparent" points="392.5,-10 392.5,-30 412.5,-30 412.5,-10 392.5,-10"/>
<text text-anchor="start" x="416.2812" y="-15.4" font-family="sans-serif" font-size="14.00" fill="#000000"> &#160;Bootstrap</text>
<polygon fill="#fdb462" stroke="transparent" points="489.5,-10 489.5,-30 509.5,-30 509.5,-10 489.5,-10"/>
<text text-anchor="start" x="513.1732" y="-15.4" font-family="sans-serif" font-size="14.00" fill="#000000"> &#160;Providers</text>
<polygon fill="#fb8072" stroke="transparent" points="585.5,-10 585.5,-30 605.5,-30 605.5,-10 585.5,-10"/>
<text text-anchor="start" x="609.2258" y="-15.4" font-family="sans-serif" font-size="14.00" fill="#000000"> &#160;Exports</text>
<g id="clust1" class="cluster">
<title>cluster_AppModule</title>
<polygon fill="none" stroke="#000000" stroke-dasharray="1,5" points="8,-70 8,-268 847,-268 847,-70 8,-70"/>
</g>
<g id="clust2" class="cluster">
<title>cluster_AppModule_declarations</title>
<polygon fill="none" stroke="#000000" points="591,-78 591,-130 839,-130 839,-78 591,-78"/>
</g>
<g id="clust5" class="cluster">
<title>cluster_AppModule_imports</title>
<polygon fill="none" stroke="#000000" points="166,-78 166,-130 583,-130 583,-78 166,-78"/>
</g>
<g id="clust7" class="cluster">
<title>cluster_AppModule_bootstrap</title>
<polygon fill="none" stroke="#000000" points="382,-208 382,-260 506,-260 506,-208 382,-208"/>
</g>
<g id="clust8" class="cluster">
<title>cluster_AppModule_providers</title>
<polygon fill="none" stroke="#000000" points="16,-78 16,-130 158,-130 158,-78 16,-78"/>
</g>
<!-- AppComponent -->
<g id="node1" class="node">
<title>AppComponent</title>
<polygon fill="#ffffb3" stroke="#000000" points="830.9399,-122 725.0601,-122 725.0601,-86 830.9399,-86 830.9399,-122"/>
<text text-anchor="middle" x="778" y="-99.8" font-family="Times,serif" font-size="14.00" fill="#000000">AppComponent</text>
</g>
<!-- AppModule -->
<g id="node3" class="node">
<title>AppModule</title>
<polygon fill="#8dd3c7" stroke="#000000" points="485.6571,-187 482.6571,-191 461.6571,-191 458.6571,-187 402.3429,-187 402.3429,-151 485.6571,-151 485.6571,-187"/>
<text text-anchor="middle" x="444" y="-164.8" font-family="Times,serif" font-size="14.00" fill="#000000">AppModule</text>
</g>
<!-- AppComponent&#45;&gt;AppModule -->
<g id="edge1" class="edge">
<title>AppComponent&#45;&gt;AppModule</title>
<path fill="none" stroke="#000000" d="M778,-122.2843C778,-143.3211 778,-175 778,-175 778,-175 495.9631,-175 495.9631,-175"/>
<polygon fill="#000000" stroke="#000000" points="495.9632,-171.5001 485.9631,-175 495.9631,-178.5001 495.9632,-171.5001"/>
</g>
<!-- StartComponent -->
<g id="node2" class="node">
<title>StartComponent</title>
<polygon fill="#ffffb3" stroke="#000000" points="706.7716,-122 599.2284,-122 599.2284,-86 706.7716,-86 706.7716,-122"/>
<text text-anchor="middle" x="653" y="-99.8" font-family="Times,serif" font-size="14.00" fill="#000000">StartComponent</text>
</g>
<!-- StartComponent&#45;&gt;AppModule -->
<g id="edge2" class="edge">
<title>StartComponent&#45;&gt;AppModule</title>
<path fill="none" stroke="#000000" d="M653,-122.0225C653,-139.3734 653,-163 653,-163 653,-163 495.792,-163 495.792,-163"/>
<polygon fill="#000000" stroke="#000000" points="495.792,-159.5001 485.792,-163 495.7919,-166.5001 495.792,-159.5001"/>
</g>
<!-- AppComponent  -->
<g id="node7" class="node">
<title>AppComponent </title>
<polygon fill="#80b1d3" stroke="#000000" points="498.439,-252 389.561,-252 389.561,-216 498.439,-216 498.439,-252"/>
<text text-anchor="middle" x="444" y="-229.8" font-family="Times,serif" font-size="14.00" fill="#000000">AppComponent </text>
</g>
<!-- AppModule&#45;&gt;AppComponent  -->
<g id="edge6" class="edge">
<title>AppModule&#45;&gt;AppComponent </title>
<path fill="none" stroke="#000000" stroke-dasharray="1,5" d="M444,-187.1061C444,-187.1061 444,-205.991 444,-205.991"/>
<polygon fill="#000000" stroke="#000000" points="440.5001,-205.9909 444,-215.991 447.5001,-205.991 440.5001,-205.9909"/>
</g>
<!-- HdLayoutModule -->
<g id="node4" class="node">
<title>HdLayoutModule</title>
<polygon fill="#8dd3c7" stroke="#000000" points="575.3146,-122 572.3146,-126 551.3146,-126 548.3146,-122 458.6854,-122 458.6854,-86 575.3146,-86 575.3146,-122"/>
<text text-anchor="middle" x="517" y="-99.8" font-family="Times,serif" font-size="14.00" fill="#000000">HdLayoutModule</text>
</g>
<!-- HdLayoutModule&#45;&gt;AppModule -->
<g id="edge3" class="edge">
<title>HdLayoutModule&#45;&gt;AppModule</title>
<path fill="none" stroke="#000000" d="M472.3356,-122.1061C472.3356,-122.1061 472.3356,-140.991 472.3356,-140.991"/>
<polygon fill="#000000" stroke="#000000" points="468.8356,-140.9909 472.3356,-150.991 475.8356,-140.991 468.8356,-140.9909"/>
</g>
<!-- FabSpeedDialModule -->
<g id="node5" class="node">
<title>FabSpeedDialModule</title>
<polygon fill="#8dd3c7" stroke="#000000" points="440.3613,-122 437.3613,-126 416.3613,-126 413.3613,-122 301.6387,-122 301.6387,-86 440.3613,-86 440.3613,-122"/>
<text text-anchor="middle" x="371" y="-99.8" font-family="Times,serif" font-size="14.00" fill="#000000">FabSpeedDialModule</text>
</g>
<!-- FabSpeedDialModule&#45;&gt;AppModule -->
<g id="edge4" class="edge">
<title>FabSpeedDialModule&#45;&gt;AppModule</title>
<path fill="none" stroke="#000000" d="M421.3012,-122.1061C421.3012,-122.1061 421.3012,-140.991 421.3012,-140.991"/>
<polygon fill="#000000" stroke="#000000" points="417.8013,-140.9909 421.3012,-150.991 424.8013,-140.991 417.8013,-140.9909"/>
</g>
<!-- HdLoginModule -->
<g id="node6" class="node">
<title>HdLoginModule</title>
<polygon fill="#8dd3c7" stroke="#000000" points="284.0996,-122 281.0996,-126 260.0996,-126 257.0996,-122 173.9004,-122 173.9004,-86 284.0996,-86 284.0996,-122"/>
<text text-anchor="middle" x="229" y="-99.8" font-family="Times,serif" font-size="14.00" fill="#000000">HdLoginModule</text>
</g>
<!-- HdLoginModule&#45;&gt;AppModule -->
<g id="edge5" class="edge">
<title>HdLoginModule&#45;&gt;AppModule</title>
<path fill="none" stroke="#000000" d="M229,-122.0225C229,-139.3734 229,-163 229,-163 229,-163 392.2909,-163 392.2909,-163"/>
<polygon fill="#000000" stroke="#000000" points="392.2909,-166.5001 402.2909,-163 392.2909,-159.5001 392.2909,-166.5001"/>
</g>
<!-- MenuService -->
<g id="node8" class="node">
<title>MenuService</title>
<ellipse fill="#fdb462" stroke="#000000" cx="87" cy="-104" rx="62.5392" ry="18"/>
<text text-anchor="middle" x="87" y="-99.8" font-family="Times,serif" font-size="14.00" fill="#000000">MenuService</text>
</g>
<!-- MenuService&#45;&gt;AppModule -->
<g id="edge7" class="edge">
<title>MenuService&#45;&gt;AppModule</title>
<path fill="none" stroke="#000000" d="M87,-122.2843C87,-143.3211 87,-175 87,-175 87,-175 391.9978,-175 391.9978,-175"/>
<polygon fill="#000000" stroke="#000000" points="391.9978,-178.5001 401.9978,-175 391.9977,-171.5001 391.9978,-178.5001"/>
</g>
</g>
</svg>
