<?xml version="1.0" encoding="UTF-8" standalone="no"?>
<!DOCTYPE svg PUBLIC "-//W3C//DTD SVG 1.1//EN"
 "http://www.w3.org/Graphics/SVG/1.1/DTD/svg11.dtd">
<!-- Generated by graphviz version 2.40.1 (20161225.0304)
 -->
<!-- Title: dependencies Pages: 1 -->
<svg width="651pt" height="284pt"
 viewBox="0.00 0.00 651.00 284.00" xmlns="http://www.w3.org/2000/svg" xmlns:xlink="http://www.w3.org/1999/xlink">
<g id="graph0" class="graph" transform="scale(1 1) rotate(0) translate(4 280)">
<title>dependencies</title>
<polygon fill="#ffffff" stroke="transparent" points="-4,4 -4,-280 647,-280 647,4 -4,4"/>
<text text-anchor="start" x="300.5091" y="-42.4" font-family="sans-serif" font-weight="bold" font-size="14.00" fill="#000000">Legend</text>
<polygon fill="#ffffb3" stroke="transparent" points="87.5,-10 87.5,-30 107.5,-30 107.5,-10 87.5,-10"/>
<text text-anchor="start" x="111.129" y="-15.4" font-family="sans-serif" font-size="14.00" fill="#000000"> &#160;Declarations</text>
<polygon fill="#8dd3c7" stroke="transparent" points="200.5,-10 200.5,-30 220.5,-30 220.5,-10 200.5,-10"/>
<text text-anchor="start" x="224.2251" y="-15.4" font-family="sans-serif" font-size="14.00" fill="#000000"> &#160;Module</text>
<polygon fill="#80b1d3" stroke="transparent" points="286.5,-10 286.5,-30 306.5,-30 306.5,-10 286.5,-10"/>
<text text-anchor="start" x="310.2812" y="-15.4" font-family="sans-serif" font-size="14.00" fill="#000000"> &#160;Bootstrap</text>
<polygon fill="#fdb462" stroke="transparent" points="383.5,-10 383.5,-30 403.5,-30 403.5,-10 383.5,-10"/>
<text text-anchor="start" x="407.1732" y="-15.4" font-family="sans-serif" font-size="14.00" fill="#000000"> &#160;Providers</text>
<polygon fill="#fb8072" stroke="transparent" points="479.5,-10 479.5,-30 499.5,-30 499.5,-10 479.5,-10"/>
<text text-anchor="start" x="503.2258" y="-15.4" font-family="sans-serif" font-size="14.00" fill="#000000"> &#160;Exports</text>
<g id="clust1" class="cluster">
<title>cluster_HdLoginModule</title>
<polygon fill="none" stroke="#000000" stroke-dasharray="1,5" points="8,-70 8,-268 635,-268 635,-70 8,-70"/>
</g>
<g id="clust2" class="cluster">
<title>cluster_HdLoginModule_declarations</title>
<polygon fill="none" stroke="#000000" points="25,-78 25,-130 621,-130 621,-78 25,-78"/>
</g>
<g id="clust8" class="cluster">
<title>cluster_HdLoginModule_exports</title>
<polygon fill="none" stroke="#000000" points="16,-208 16,-260 627,-260 627,-208 16,-208"/>
</g>
<!-- LoginComponent -->
<g id="node1" class="node">
<title>LoginComponent</title>
<polygon fill="#ffffb3" stroke="#000000" points="613.2758,-122 498.7242,-122 498.7242,-86 613.2758,-86 613.2758,-122"/>
<text text-anchor="middle" x="556" y="-99.8" font-family="Times,serif" font-size="14.00" fill="#000000">LoginComponent</text>
</g>
<!-- HdLoginModule -->
<g id="node5" class="node">
<title>HdLoginModule</title>
<polygon fill="#8dd3c7" stroke="#000000" points="322.0996,-187 319.0996,-191 298.0996,-191 295.0996,-187 211.9004,-187 211.9004,-151 322.0996,-151 322.0996,-187"/>
<text text-anchor="middle" x="267" y="-164.8" font-family="Times,serif" font-size="14.00" fill="#000000">HdLoginModule</text>
</g>
<!-- LoginComponent&#45;&gt;HdLoginModule -->
<g id="edge1" class="edge">
<title>LoginComponent&#45;&gt;HdLoginModule</title>
<path fill="none" stroke="#000000" d="M575.8793,-122.2667C575.8793,-140.5552 575.8793,-166 575.8793,-166 575.8793,-166 332.2214,-166 332.2214,-166"/>
<polygon fill="#000000" stroke="#000000" points="332.2215,-162.5001 322.2214,-166 332.2214,-169.5001 332.2215,-162.5001"/>
</g>
<!-- LeftSideComponent -->
<g id="node2" class="node">
<title>LeftSideComponent</title>
<polygon fill="#ffffb3" stroke="#000000" points="480.5394,-122 351.4606,-122 351.4606,-86 480.5394,-86 480.5394,-122"/>
<text text-anchor="middle" x="416" y="-99.8" font-family="Times,serif" font-size="14.00" fill="#000000">LeftSideComponent</text>
</g>
<!-- LeftSideComponent&#45;&gt;HdLoginModule -->
<g id="edge2" class="edge">
<title>LeftSideComponent&#45;&gt;HdLoginModule</title>
<path fill="none" stroke="#000000" d="M437.5898,-122.0091C437.5898,-138.0494 437.5898,-159 437.5898,-159 437.5898,-159 332.3856,-159 332.3856,-159"/>
<polygon fill="#000000" stroke="#000000" points="332.3856,-155.5001 322.3856,-159 332.3856,-162.5001 332.3856,-155.5001"/>
</g>
<!-- RightSideComponent -->
<g id="node3" class="node">
<title>RightSideComponent</title>
<polygon fill="#ffffb3" stroke="#000000" points="333.8384,-122 196.1616,-122 196.1616,-86 333.8384,-86 333.8384,-122"/>
<text text-anchor="middle" x="265" y="-99.8" font-family="Times,serif" font-size="14.00" fill="#000000">RightSideComponent</text>
</g>
<!-- RightSideComponent&#45;&gt;HdLoginModule -->
<g id="edge3" class="edge">
<title>RightSideComponent&#45;&gt;HdLoginModule</title>
<path fill="none" stroke="#000000" d="M267,-122.1061C267,-122.1061 267,-140.991 267,-140.991"/>
<polygon fill="#000000" stroke="#000000" points="263.5001,-140.9909 267,-150.991 270.5001,-140.991 263.5001,-140.9909"/>
</g>
<!-- LoginFormComponent -->
<g id="node4" class="node">
<title>LoginFormComponent</title>
<polygon fill="#ffffb3" stroke="#000000" points="178.6094,-122 33.3906,-122 33.3906,-86 178.6094,-86 178.6094,-122"/>
<text text-anchor="middle" x="106" y="-99.8" font-family="Times,serif" font-size="14.00" fill="#000000">LoginFormComponent</text>
</g>
<!-- LoginFormComponent&#45;&gt;HdLoginModule -->
<g id="edge4" class="edge">
<title>LoginFormComponent&#45;&gt;HdLoginModule</title>
<path fill="none" stroke="#000000" d="M126.0182,-122.0225C126.0182,-139.3734 126.0182,-163 126.0182,-163 126.0182,-163 201.6849,-163 201.6849,-163"/>
<polygon fill="#000000" stroke="#000000" points="201.6849,-166.5001 211.6849,-163 201.6849,-159.5001 201.6849,-166.5001"/>
</g>
<!-- LoginComponent  -->
<g id="node6" class="node">
<title>LoginComponent </title>
<polygon fill="#fb8072" stroke="#000000" points="619.2759,-252 500.7241,-252 500.7241,-216 619.2759,-216 619.2759,-252"/>
<text text-anchor="middle" x="560" y="-229.8" font-family="Times,serif" font-size="14.00" fill="#000000">LoginComponent </text>
</g>
<!-- HdLoginModule&#45;&gt;LoginComponent  -->
<g id="edge5" class="edge">
<title>HdLoginModule&#45;&gt;LoginComponent </title>
<path fill="none" stroke="#000000" stroke-dasharray="5,2" d="M322.243,-173C401.5878,-173 538.3707,-173 538.3707,-173 538.3707,-173 538.3707,-205.698 538.3707,-205.698"/>
<polygon fill="#000000" stroke="#000000" points="534.8708,-205.698 538.3707,-215.698 541.8708,-205.698 534.8708,-205.698"/>
</g>
<!-- LeftSideComponent  -->
<g id="node7" class="node">
<title>LeftSideComponent </title>
<polygon fill="#fb8072" stroke="#000000" points="482.5386,-252 349.4614,-252 349.4614,-216 482.5386,-216 482.5386,-252"/>
<text text-anchor="middle" x="416" y="-229.8" font-family="Times,serif" font-size="14.00" fill="#000000">LeftSideComponent </text>
</g>
<!-- HdLoginModule&#45;&gt;LeftSideComponent  -->
<g id="edge6" class="edge">
<title>HdLoginModule&#45;&gt;LeftSideComponent </title>
<path fill="none" stroke="#000000" stroke-dasharray="5,2" d="M322.143,-180C356.5771,-180 394.4102,-180 394.4102,-180 394.4102,-180 394.4102,-205.7181 394.4102,-205.7181"/>
<polygon fill="#000000" stroke="#000000" points="390.9103,-205.718 394.4102,-215.7181 397.9103,-205.7181 390.9103,-205.718"/>
</g>
<!-- RightSideComponent  -->
<g id="node8" class="node">
<title>RightSideComponent </title>
<polygon fill="#fb8072" stroke="#000000" points="331.3381,-252 190.6619,-252 190.6619,-216 331.3381,-216 331.3381,-252"/>
<text text-anchor="middle" x="261" y="-229.8" font-family="Times,serif" font-size="14.00" fill="#000000">RightSideComponent </text>
</g>
<!-- HdLoginModule&#45;&gt;RightSideComponent  -->
<g id="edge7" class="edge">
<title>HdLoginModule&#45;&gt;RightSideComponent </title>
<path fill="none" stroke="#000000" stroke-dasharray="5,2" d="M267,-187.1061C267,-187.1061 267,-205.991 267,-205.991"/>
<polygon fill="#000000" stroke="#000000" points="263.5001,-205.9909 267,-215.991 270.5001,-205.991 263.5001,-205.9909"/>
</g>
<!-- LoginFormComponent  -->
<g id="node9" class="node">
<title>LoginFormComponent </title>
<polygon fill="#fb8072" stroke="#000000" points="172.1099,-252 23.8901,-252 23.8901,-216 172.1099,-216 172.1099,-252"/>
<text text-anchor="middle" x="98" y="-229.8" font-family="Times,serif" font-size="14.00" fill="#000000">LoginFormComponent </text>
</g>
<!-- HdLoginModule&#45;&gt;LoginFormComponent  -->
<g id="edge8" class="edge">
<title>HdLoginModule&#45;&gt;LoginFormComponent </title>
<path fill="none" stroke="#000000" stroke-dasharray="5,2" d="M211.8262,-175C156.5867,-175 79.7318,-175 79.7318,-175 79.7318,-175 79.7318,-205.9775 79.7318,-205.9775"/>
<polygon fill="#000000" stroke="#000000" points="76.2319,-205.9774 79.7318,-215.9775 83.2319,-205.9775 76.2319,-205.9774"/>
</g>
</g>
</svg>
