<?xml version="1.0" encoding="UTF-8" standalone="no"?>
<!DOCTYPE svg PUBLIC "-//W3C//DTD SVG 1.1//EN"
 "http://www.w3.org/Graphics/SVG/1.1/DTD/svg11.dtd">
<!-- Generated by graphviz version 2.40.1 (20161225.0304)
 -->
<!-- Title: dependencies Pages: 1 -->
<svg width="722pt" height="284pt"
 viewBox="0.00 0.00 722.00 284.00" xmlns="http://www.w3.org/2000/svg" xmlns:xlink="http://www.w3.org/1999/xlink">
<g id="graph0" class="graph" transform="scale(1 1) rotate(0) translate(4 280)">
<title>dependencies</title>
<polygon fill="#ffffff" stroke="transparent" points="-4,4 -4,-280 718,-280 718,4 -4,4"/>
<text text-anchor="start" x="336.0091" y="-42.4" font-family="sans-serif" font-weight="bold" font-size="14.00" fill="#000000">Legend</text>
<polygon fill="#ffffb3" stroke="transparent" points="123,-10 123,-30 143,-30 143,-10 123,-10"/>
<text text-anchor="start" x="146.629" y="-15.4" font-family="sans-serif" font-size="14.00" fill="#000000"> &#160;Declarations</text>
<polygon fill="#8dd3c7" stroke="transparent" points="236,-10 236,-30 256,-30 256,-10 236,-10"/>
<text text-anchor="start" x="259.7251" y="-15.4" font-family="sans-serif" font-size="14.00" fill="#000000"> &#160;Module</text>
<polygon fill="#80b1d3" stroke="transparent" points="322,-10 322,-30 342,-30 342,-10 322,-10"/>
<text text-anchor="start" x="345.7812" y="-15.4" font-family="sans-serif" font-size="14.00" fill="#000000"> &#160;Bootstrap</text>
<polygon fill="#fdb462" stroke="transparent" points="419,-10 419,-30 439,-30 439,-10 419,-10"/>
<text text-anchor="start" x="442.6732" y="-15.4" font-family="sans-serif" font-size="14.00" fill="#000000"> &#160;Providers</text>
<polygon fill="#fb8072" stroke="transparent" points="515,-10 515,-30 535,-30 535,-10 515,-10"/>
<text text-anchor="start" x="538.7258" y="-15.4" font-family="sans-serif" font-size="14.00" fill="#000000"> &#160;Exports</text>
<g id="clust1" class="cluster">
<title>cluster_FabSpeedDialModule</title>
<polygon fill="none" stroke="#000000" stroke-dasharray="1,5" points="8,-70 8,-268 706,-268 706,-70 8,-70"/>
</g>
<g id="clust2" class="cluster">
<title>cluster_FabSpeedDialModule_declarations</title>
<polygon fill="none" stroke="#000000" points="21,-78 21,-130 693,-130 693,-78 21,-78"/>
</g>
<g id="clust7" class="cluster">
<title>cluster_FabSpeedDialModule_exports</title>
<polygon fill="none" stroke="#000000" points="16,-208 16,-260 698,-260 698,-208 16,-208"/>
</g>
<!-- HdFabSpeedDialTriggerComponent -->
<g id="node1" class="node">
<title>HdFabSpeedDialTriggerComponent</title>
<polygon fill="#ffffb3" stroke="#000000" points="684.7296,-122 465.2704,-122 465.2704,-86 684.7296,-86 684.7296,-122"/>
<text text-anchor="middle" x="575" y="-99.8" font-family="Times,serif" font-size="14.00" fill="#000000">HdFabSpeedDialTriggerComponent</text>
</g>
<!-- FabSpeedDialModule -->
<g id="node4" class="node">
<title>FabSpeedDialModule</title>
<polygon fill="#8dd3c7" stroke="#000000" points="405.3613,-187 402.3613,-191 381.3613,-191 378.3613,-187 266.6387,-187 266.6387,-151 405.3613,-151 405.3613,-187"/>
<text text-anchor="middle" x="336" y="-164.8" font-family="Times,serif" font-size="14.00" fill="#000000">FabSpeedDialModule</text>
</g>
<!-- HdFabSpeedDialTriggerComponent&#45;&gt;FabSpeedDialModule -->
<g id="edge1" class="edge">
<title>HdFabSpeedDialTriggerComponent&#45;&gt;FabSpeedDialModule</title>
<path fill="none" stroke="#000000" d="M612.0382,-122.0225C612.0382,-139.3734 612.0382,-163 612.0382,-163 612.0382,-163 415.6561,-163 415.6561,-163"/>
<polygon fill="#000000" stroke="#000000" points="415.6561,-159.5001 405.6561,-163 415.6561,-166.5001 415.6561,-159.5001"/>
</g>
<!-- HdFabSpeedDialActionsComponent -->
<g id="node2" class="node">
<title>HdFabSpeedDialActionsComponent</title>
<polygon fill="#ffffb3" stroke="#000000" points="446.7976,-122 225.2024,-122 225.2024,-86 446.7976,-86 446.7976,-122"/>
<text text-anchor="middle" x="336" y="-99.8" font-family="Times,serif" font-size="14.00" fill="#000000">HdFabSpeedDialActionsComponent</text>
</g>
<!-- HdFabSpeedDialActionsComponent&#45;&gt;FabSpeedDialModule -->
<g id="edge2" class="edge">
<title>HdFabSpeedDialActionsComponent&#45;&gt;FabSpeedDialModule</title>
<path fill="none" stroke="#000000" d="M336,-122.1061C336,-122.1061 336,-140.991 336,-140.991"/>
<polygon fill="#000000" stroke="#000000" points="332.5001,-140.9909 336,-150.991 339.5001,-140.991 332.5001,-140.9909"/>
</g>
<!-- HdFabSpeedDialComponent -->
<g id="node3" class="node">
<title>HdFabSpeedDialComponent</title>
<polygon fill="#ffffb3" stroke="#000000" points="206.7506,-122 29.2494,-122 29.2494,-86 206.7506,-86 206.7506,-122"/>
<text text-anchor="middle" x="118" y="-99.8" font-family="Times,serif" font-size="14.00" fill="#000000">HdFabSpeedDialComponent</text>
</g>
<!-- HdFabSpeedDialComponent&#45;&gt;FabSpeedDialModule -->
<g id="edge3" class="edge">
<title>HdFabSpeedDialComponent&#45;&gt;FabSpeedDialModule</title>
<path fill="none" stroke="#000000" d="M146.7917,-122.0225C146.7917,-139.3734 146.7917,-163 146.7917,-163 146.7917,-163 256.6202,-163 256.6202,-163"/>
<polygon fill="#000000" stroke="#000000" points="256.6202,-166.5001 266.6202,-163 256.6202,-159.5001 256.6202,-166.5001"/>
</g>
<!-- HdFabSpeedDialTriggerComponent  -->
<g id="node5" class="node">
<title>HdFabSpeedDialTriggerComponent </title>
<polygon fill="#fb8072" stroke="#000000" points="689.7295,-252 466.2705,-252 466.2705,-216 689.7295,-216 689.7295,-252"/>
<text text-anchor="middle" x="578" y="-229.8" font-family="Times,serif" font-size="14.00" fill="#000000">HdFabSpeedDialTriggerComponent </text>
</g>
<!-- FabSpeedDialModule&#45;&gt;HdFabSpeedDialTriggerComponent  -->
<g id="edge4" class="edge">
<title>FabSpeedDialModule&#45;&gt;HdFabSpeedDialTriggerComponent </title>
<path fill="none" stroke="#000000" stroke-dasharray="5,2" d="M405.3656,-175C464.2345,-175 539.2118,-175 539.2118,-175 539.2118,-175 539.2118,-205.9775 539.2118,-205.9775"/>
<polygon fill="#000000" stroke="#000000" points="535.7119,-205.9774 539.2118,-215.9775 542.7119,-205.9775 535.7119,-205.9774"/>
</g>
<!-- HdFabSpeedDialActionsComponent  -->
<g id="node6" class="node">
<title>HdFabSpeedDialActionsComponent </title>
<polygon fill="#fb8072" stroke="#000000" points="448.2975,-252 223.7025,-252 223.7025,-216 448.2975,-216 448.2975,-252"/>
<text text-anchor="middle" x="336" y="-229.8" font-family="Times,serif" font-size="14.00" fill="#000000">HdFabSpeedDialActionsComponent </text>
</g>
<!-- FabSpeedDialModule&#45;&gt;HdFabSpeedDialActionsComponent  -->
<g id="edge5" class="edge">
<title>FabSpeedDialModule&#45;&gt;HdFabSpeedDialActionsComponent </title>
<path fill="none" stroke="#000000" stroke-dasharray="5,2" d="M336,-187.1061C336,-187.1061 336,-205.991 336,-205.991"/>
<polygon fill="#000000" stroke="#000000" points="332.5001,-205.9909 336,-215.991 339.5001,-205.991 332.5001,-205.9909"/>
</g>
<!-- HdFabSpeedDialComponent  -->
<g id="node7" class="node">
<title>HdFabSpeedDialComponent </title>
<polygon fill="#fb8072" stroke="#000000" points="205.7506,-252 24.2494,-252 24.2494,-216 205.7506,-216 205.7506,-252"/>
<text text-anchor="middle" x="115" y="-229.8" font-family="Times,serif" font-size="14.00" fill="#000000">HdFabSpeedDialComponent </text>
</g>
<!-- FabSpeedDialModule&#45;&gt;HdFabSpeedDialComponent  -->
<g id="edge6" class="edge">
<title>FabSpeedDialModule&#45;&gt;HdFabSpeedDialComponent </title>
<path fill="none" stroke="#000000" stroke-dasharray="5,2" d="M266.5767,-175C193.1972,-175 87.9583,-175 87.9583,-175 87.9583,-175 87.9583,-205.9775 87.9583,-205.9775"/>
<polygon fill="#000000" stroke="#000000" points="84.4584,-205.9774 87.9583,-215.9775 91.4584,-205.9775 84.4584,-205.9774"/>
</g>
</g>
</svg>
