<?xml version="1.0" encoding="UTF-8" standalone="no"?>
<!DOCTYPE svg PUBLIC "-//W3C//DTD SVG 1.1//EN"
 "http://www.w3.org/Graphics/SVG/1.1/DTD/svg11.dtd">
<!-- Generated by graphviz version 2.40.1 (20161225.0304)
 -->
<!-- Title: dependencies Pages: 1 -->
<svg width="556pt" height="284pt"
 viewBox="0.00 0.00 556.00 284.00" xmlns="http://www.w3.org/2000/svg" xmlns:xlink="http://www.w3.org/1999/xlink">
<g id="graph0" class="graph" transform="scale(1 1) rotate(0) translate(4 280)">
<title>dependencies</title>
<polygon fill="#ffffff" stroke="transparent" points="-4,4 -4,-280 552,-280 552,4 -4,4"/>
<text text-anchor="start" x="253.0091" y="-42.4" font-family="sans-serif" font-weight="bold" font-size="14.00" fill="#000000">Legend</text>
<polygon fill="#ffffb3" stroke="transparent" points="40,-10 40,-30 60,-30 60,-10 40,-10"/>
<text text-anchor="start" x="63.629" y="-15.4" font-family="sans-serif" font-size="14.00" fill="#000000"> &#160;Declarations</text>
<polygon fill="#8dd3c7" stroke="transparent" points="153,-10 153,-30 173,-30 173,-10 153,-10"/>
<text text-anchor="start" x="176.7251" y="-15.4" font-family="sans-serif" font-size="14.00" fill="#000000"> &#160;Module</text>
<polygon fill="#80b1d3" stroke="transparent" points="239,-10 239,-30 259,-30 259,-10 239,-10"/>
<text text-anchor="start" x="262.7812" y="-15.4" font-family="sans-serif" font-size="14.00" fill="#000000"> &#160;Bootstrap</text>
<polygon fill="#fdb462" stroke="transparent" points="336,-10 336,-30 356,-30 356,-10 336,-10"/>
<text text-anchor="start" x="359.6732" y="-15.4" font-family="sans-serif" font-size="14.00" fill="#000000"> &#160;Providers</text>
<polygon fill="#fb8072" stroke="transparent" points="432,-10 432,-30 452,-30 452,-10 432,-10"/>
<text text-anchor="start" x="455.7258" y="-15.4" font-family="sans-serif" font-size="14.00" fill="#000000"> &#160;Exports</text>
<g id="clust1" class="cluster">
<title>cluster_HdUploadModule</title>
<polygon fill="none" stroke="#000000" stroke-dasharray="1,5" points="8,-70 8,-268 540,-268 540,-70 8,-70"/>
</g>
<g id="clust2" class="cluster">
<title>cluster_HdUploadModule_declarations</title>
<polygon fill="none" stroke="#000000" points="22,-78 22,-130 528,-130 528,-78 22,-78"/>
</g>
<g id="clust7" class="cluster">
<title>cluster_HdUploadModule_exports</title>
<polygon fill="none" stroke="#000000" points="16,-208 16,-260 532,-260 532,-208 16,-208"/>
</g>
<!-- UploadFileDirective -->
<g id="node1" class="node">
<title>UploadFileDirective</title>
<polygon fill="#ffffb3" stroke="#000000" points="519.573,-122 388.427,-122 388.427,-86 519.573,-86 519.573,-122"/>
<text text-anchor="middle" x="454" y="-99.8" font-family="Times,serif" font-size="14.00" fill="#000000">UploadFileDirective</text>
</g>
<!-- HdUploadModule -->
<g id="node4" class="node">
<title>HdUploadModule</title>
<polygon fill="#8dd3c7" stroke="#000000" points="356.8683,-187 353.8683,-191 332.8683,-191 329.8683,-187 239.1317,-187 239.1317,-151 356.8683,-151 356.8683,-187"/>
<text text-anchor="middle" x="298" y="-164.8" font-family="Times,serif" font-size="14.00" fill="#000000">HdUploadModule</text>
</g>
<!-- UploadFileDirective&#45;&gt;HdUploadModule -->
<g id="edge1" class="edge">
<title>UploadFileDirective&#45;&gt;HdUploadModule</title>
<path fill="none" stroke="#000000" d="M476.2622,-122.0225C476.2622,-139.3734 476.2622,-163 476.2622,-163 476.2622,-163 367.3587,-163 367.3587,-163"/>
<polygon fill="#000000" stroke="#000000" points="367.3588,-159.5001 357.3587,-163 367.3587,-166.5001 367.3588,-159.5001"/>
</g>
<!-- UploadImageDirective -->
<g id="node2" class="node">
<title>UploadImageDirective</title>
<polygon fill="#ffffb3" stroke="#000000" points="370.2753,-122 225.7247,-122 225.7247,-86 370.2753,-86 370.2753,-122"/>
<text text-anchor="middle" x="298" y="-99.8" font-family="Times,serif" font-size="14.00" fill="#000000">UploadImageDirective</text>
</g>
<!-- UploadImageDirective&#45;&gt;HdUploadModule -->
<g id="edge2" class="edge">
<title>UploadImageDirective&#45;&gt;HdUploadModule</title>
<path fill="none" stroke="#000000" d="M298,-122.1061C298,-122.1061 298,-140.991 298,-140.991"/>
<polygon fill="#000000" stroke="#000000" points="294.5001,-140.9909 298,-150.991 301.5001,-140.991 294.5001,-140.9909"/>
</g>
<!-- UploadContainerComponent -->
<g id="node3" class="node">
<title>UploadContainerComponent</title>
<polygon fill="#ffffb3" stroke="#000000" points="207.752,-122 30.248,-122 30.248,-86 207.752,-86 207.752,-122"/>
<text text-anchor="middle" x="119" y="-99.8" font-family="Times,serif" font-size="14.00" fill="#000000">UploadContainerComponent</text>
</g>
<!-- UploadContainerComponent&#45;&gt;HdUploadModule -->
<g id="edge3" class="edge">
<title>UploadContainerComponent&#45;&gt;HdUploadModule</title>
<path fill="none" stroke="#000000" d="M147.1253,-122.0225C147.1253,-139.3734 147.1253,-163 147.1253,-163 147.1253,-163 228.8034,-163 228.8034,-163"/>
<polygon fill="#000000" stroke="#000000" points="228.8034,-166.5001 238.8034,-163 228.8033,-159.5001 228.8034,-166.5001"/>
</g>
<!-- UploadFileDirective  -->
<g id="node5" class="node">
<title>UploadFileDirective </title>
<polygon fill="#fb8072" stroke="#000000" points="524.0737,-252 389.9263,-252 389.9263,-216 524.0737,-216 524.0737,-252"/>
<text text-anchor="middle" x="457" y="-229.8" font-family="Times,serif" font-size="14.00" fill="#000000">UploadFileDirective </text>
</g>
<!-- HdUploadModule&#45;&gt;UploadFileDirective  -->
<g id="edge4" class="edge">
<title>HdUploadModule&#45;&gt;UploadFileDirective </title>
<path fill="none" stroke="#000000" stroke-dasharray="5,2" d="M357.2076,-175C393.4772,-175 432.9878,-175 432.9878,-175 432.9878,-175 432.9878,-205.9775 432.9878,-205.9775"/>
<polygon fill="#000000" stroke="#000000" points="429.4879,-205.9774 432.9878,-215.9775 436.4879,-205.9775 429.4879,-205.9774"/>
</g>
<!-- UploadImageDirective  -->
<g id="node6" class="node">
<title>UploadImageDirective </title>
<polygon fill="#fb8072" stroke="#000000" points="371.7752,-252 224.2248,-252 224.2248,-216 371.7752,-216 371.7752,-252"/>
<text text-anchor="middle" x="298" y="-229.8" font-family="Times,serif" font-size="14.00" fill="#000000">UploadImageDirective </text>
</g>
<!-- HdUploadModule&#45;&gt;UploadImageDirective  -->
<g id="edge5" class="edge">
<title>HdUploadModule&#45;&gt;UploadImageDirective </title>
<path fill="none" stroke="#000000" stroke-dasharray="5,2" d="M298,-187.1061C298,-187.1061 298,-205.991 298,-205.991"/>
<polygon fill="#000000" stroke="#000000" points="294.5001,-205.9909 298,-215.991 301.5001,-205.991 294.5001,-205.9909"/>
</g>
<!-- UploadContainerComponent  -->
<g id="node7" class="node">
<title>UploadContainerComponent </title>
<polygon fill="#fb8072" stroke="#000000" points="205.752,-252 24.248,-252 24.248,-216 205.752,-216 205.752,-252"/>
<text text-anchor="middle" x="115" y="-229.8" font-family="Times,serif" font-size="14.00" fill="#000000">UploadContainerComponent </text>
</g>
<!-- HdUploadModule&#45;&gt;UploadContainerComponent  -->
<g id="edge6" class="edge">
<title>HdUploadModule&#45;&gt;UploadContainerComponent </title>
<path fill="none" stroke="#000000" stroke-dasharray="5,2" d="M239.1201,-175C177.1921,-175 88.6247,-175 88.6247,-175 88.6247,-175 88.6247,-205.9775 88.6247,-205.9775"/>
<polygon fill="#000000" stroke="#000000" points="85.1248,-205.9774 88.6247,-215.9775 92.1248,-205.9775 85.1248,-205.9774"/>
</g>
</g>
</svg>
